<svg preserveAspectRatio="none" width="100%" height="100%" overflow="visible" style="display: block;" viewBox="0 0 20.305 15.305" fill="none" xmlns="http://www.w3.org/2000/svg">
<path id="Vector" d="M1.70325 15.305C1.23075 15.305 0.82875 15.1392 0.49725 14.8077C0.16575 14.4762 0 14.0742 0 13.6017V6.67225C0 6.44008 0.0456667 6.21725 0.137 6.00375C0.228333 5.79042 0.350583 5.60708 0.50375 5.45375L3.47025 2.488C3.60458 2.34933 3.76642 2.23833 3.95575 2.155C4.14492 2.07167 4.34392 2.03 4.55275 2.03H5.39775V0.833749C5.39775 0.600083 5.47817 0.40275 5.639 0.24175C5.79983 0.0805829 5.99683 0 6.23 0C6.46767 0 6.66525 0.0805829 6.82275 0.24175C6.98042 0.40275 7.05925 0.600083 7.05925 0.833749V2.03H15.6685C15.9043 2.03 16.1292 2.07683 16.343 2.1705C16.5567 2.26433 16.74 2.38742 16.893 2.53975L19.8012 5.45375C19.9516 5.60642 20.0732 5.78942 20.166 6.00275C20.2587 6.21608 20.305 6.43925 20.305 6.67225V13.6017C20.305 14.0742 20.1382 14.4762 19.8045 14.8077C19.4708 15.1392 19.0699 15.305 18.6018 15.305H1.70325ZM14.2272 13.6435H18.6435V6.6545L16.4352 4.44025L14.2272 6.6545V13.6435ZM12.5658 13.6435V7.71525H1.6615V13.6435H12.5658Z" fill="var(--fill-0, #0C0C0C)"/>
</svg>
